STARTFONT 2.1
COMMENT Generated from X font `-adobe-helvetica-bold-r-normal--18-180-75-75-p-103-iso8859-1' by getbdf
FONT -adobe-helvetica-bold-r-normal--18-180-75-75-p-103-iso8859-1
SIZE 18 75 75
FONTBOUNDINGBOX 18 23 -1 -5
STARTPROPERTIES 30
FONT_ASCENT 16
FONT_DESCENT 5
DEFAULT_CHAR 0
FOUNDRY "Adobe"
FAMILY_NAME "Helvetica"
WEIGHT_NAME "Bold"
SLANT "R"
SETWIDTH_NAME "Normal"
ADD_STYLE_NAME ""
PIXEL_SIZE 18
POINT_SIZE 180
RESOLUTION_X 75
RESOLUTION_Y 75
SPACING "P"
AVERAGE_WIDTH 103
CHARSET_REGISTRY "ISO8859"
CHARSET_ENCODING "1"
CAP_HEIGHT 14
X_HEIGHT 10
FACE_NAME "Helvetica Bold"
COPYRIGHT "Copyright (c) 1984, 1987 Adobe Systems Incorporated. All Rights Reserved. Copyright (c) 1988, 1991 Digital Equipment Corporation. All Rights Reserved."
NOTICE "Helvetica is a trademark of Linotype-Hell AG and/or its subsidiaries.  "
_DEC_DEVICE_FONTNAMES 223
RELATIVE_SETWIDTH 50
RELATIVE_WEIGHT 70
FULL_NAME "Helvetica Bold"
FONT "-Adobe-Helvetica-Bold-R-Normal--18-180-75-75-P-103-ISO8859-1"
WEIGHT 10
RESOLUTION 103
QUAD_WIDTH 11
ENDPROPERTIES
CHARS 192
STARTCHAR 0
ENCODING 0
SWIDTH 693 0
DWIDTH 13 0
BBX 11 13 1 0
BITMAP
aaa0
0000
8020
0000
8020
0000
8020
0000
8020
0000
8020
0000
aaa0
ENDCHAR
STARTCHAR 32
ENCODING 32
SWIDTH 266 0
DWIDTH 5 0
BBX 1 1 0 0
BITMAP
00
ENDCHAR
STARTCHAR 33
ENCODING 33
SWIDTH 266 0
DWIDTH 5 0
BBX 3 14 1 0
BITMAP
e0
e0
e0
e0
e0
e0
e0
e0
c0
c0
00
e0
e0
e0
ENDCHAR
STARTCHAR 34
ENCODING 34
SWIDTH 426 0
DWIDTH 8 0
BBX 5 5 2 9
BITMAP
d8
d8
d8
d8
90
ENDCHAR
STARTCHAR 35
ENCODING 35
SWIDTH 586 0
DWIDTH 11 0
BBX 11 13 0 0
BITMAP
0d80
0d80
0d80
7fe0
7fe0
1b00
1b00
1b00
ffc0
ffc0
3600
3600
3600
ENDCHAR
STARTCHAR 36
ENCODING 36
SWIDTH 533 0
DWIDTH 10 0
BBX 9 16 0 -2
BITMAP
0800
3e00
7f00
eb80
eb80
e800
7800
3e00
0f00
0b80
eb80
eb80
7f00
3e00
0800
0800
ENDCHAR
STARTCHAR 37
ENCODING 37
SWIDTH 853 0
DWIDTH 16 0
BBX 13 13 1 0
BITMAP
7860
fc60
ccc0
cc80
fd80
7b00
0200
06f0
0df8
0998
1998
31f8
30f0
ENDCHAR
STARTCHAR 38
ENCODING 38
SWIDTH 746 0
DWIDTH 14 0
BBX 13 13 1 0
BITMAP
3e00
7f00
6300
7300
3e00
7c60
ee60
c7e0
c3c0
c1c0
e3e0
7f70
3e78
ENDCHAR
STARTCHAR 39
ENCODING 39
SWIDTH 213 0
DWIDTH 4 0
BBX 2 5 1 9
BITMAP
c0
c0
c0
c0
80
ENDCHAR
STARTCHAR 40
ENCODING 40
SWIDTH 373 0
DWIDTH 7 0
BBX 6 18 0 -4
BITMAP
1c
38
30
70
60
e0
e0
e0
e0
e0
e0
e0
e0
60
70
30
38
1c
ENDCHAR
STARTCHAR 41
ENCODING 41
SWIDTH 373 0
DWIDTH 7 0
BBX 6 18 1 -4
BITMAP
e0
70
30
38
18
1c
1c
1c
1c
1c
1c
1c
1c
18
38
30
70
e0
ENDCHAR
STARTCHAR 42
ENCODING 42
SWIDTH 480 0
DWIDTH 9 0
BBX 7 6 1 8
BITMAP
10
d6
7c
38
6c
44
ENDCHAR
STARTCHAR 43
ENCODING 43
SWIDTH 586 0
DWIDTH 11 0
BBX 9 8 1 1
BITMAP
1c00
1c00
1c00
ff80
ff80
1c00
1c00
1c00
ENDCHAR
STARTCHAR 44
ENCODING 44
SWIDTH 266 0
DWIDTH 5 0
BBX 3 5 1 -2
BITMAP
e0
e0
e0
60
c0
ENDCHAR
STARTCHAR 45
ENCODING 45
SWIDTH 373 0
DWIDTH 7 0
BBX 5 3 1 4
BITMAP
f8
f8
f8
ENDCHAR
STARTCHAR 46
ENCODING 46
SWIDTH 266 0
DWIDTH 5 0
BBX 3 3 1 0
BITMAP
e0
e0
e0
ENDCHAR
STARTCHAR 47
ENCODING 47
SWIDTH 266 0
DWIDTH 5 0
BBX 5 14 0 0
BITMAP
18
18
18
10
30
30
30
20
60
60
40
c0
c0
c0
ENDCHAR
STARTCHAR 48
ENCODING 48
SWIDTH 533 0
DWIDTH 10 0
BBX 9 13 0 0
BITMAP
1c00
7f00
7700
e380
e380
e380
e380
e380
e380
e380
7700
7f00
1c00
ENDCHAR
STARTCHAR 49
ENCODING 49
SWIDTH 533 0
DWIDTH 10 0
BBX 6 13 1 0
BITMAP
1c
3c
fc
fc
1c
1c
1c
1c
1c
1c
1c
1c
1c
ENDCHAR
STARTCHAR 50
ENCODING 50
SWIDTH 533 0
DWIDTH 10 0
BBX 9 13 0 0
BITMAP
3e00
7f00
e380
e380
0380
0700
1f00
3e00
7800
7000
e000
ff80
ff80
ENDCHAR
STARTCHAR 51
ENCODING 51
SWIDTH 533 0
DWIDTH 10 0
BBX 9 13 0 0
BITMAP
3e00
7f00
e700
e300
0700
1e00
1f00
0780
0380
e380
e780
7f00
3e00
ENDCHAR
STARTCHAR 52
ENCODING 52
SWIDTH 533 0
DWIDTH 10 0
BBX 9 13 0 0
BITMAP
0700
0f00
1f00
3f00
3700
7700
6700
e700
ff80
ff80
0700
0700
0700
ENDCHAR
STARTCHAR 53
ENCODING 53
SWIDTH 533 0
DWIDTH 10 0
BBX 9 13 0 0
BITMAP
ff00
ff00
e000
e000
fe00
ff00
e780
0380
0380
e380
e780
ff00
7e00
ENDCHAR
STARTCHAR 54
ENCODING 54
SWIDTH 533 0
DWIDTH 10 0
BBX 9 13 0 0
BITMAP
3e00
7f00
7300
e000
e000
ee00
ff00
f380
e380
e380
f380
7f00
3e00
ENDCHAR
STARTCHAR 55
ENCODING 55
SWIDTH 533 0
DWIDTH 10 0
BBX 9 13 0 0
BITMAP
ff80
ff80
0380
0700
0e00
0e00
1c00
1c00
3800
3800
7000
7000
7000
ENDCHAR
STARTCHAR 56
ENCODING 56
SWIDTH 533 0
DWIDTH 10 0
BBX 9 13 0 0
BITMAP
3e00
7f00
e380
e380
e380
7f00
3e00
7700
e380
e380
e380
7f00
3e00
ENDCHAR
STARTCHAR 57
ENCODING 57
SWIDTH 533 0
DWIDTH 10 0
BBX 9 13 0 0
BITMAP
3e00
7f00
e700
e380
c380
c380
e780
7f80
3d80
0380
e700
ff00
7c00
ENDCHAR
STARTCHAR 58
ENCODING 58
SWIDTH 320 0
DWIDTH 6 0
BBX 3 10 2 0
BITMAP
e0
e0
e0
00
00
00
00
e0
e0
e0
ENDCHAR
STARTCHAR 59
ENCODING 59
SWIDTH 320 0
DWIDTH 6 0
BBX 3 12 2 -2
BITMAP
e0
e0
e0
00
00
00
00
e0
e0
e0
40
80
ENDCHAR
STARTCHAR 60
ENCODING 60
SWIDTH 586 0
DWIDTH 11 0
BBX 9 9 1 0
BITMAP
0380
0f80
3e00
7800
e000
7800
3e00
0f80
0380
ENDCHAR
STARTCHAR 61
ENCODING 61
SWIDTH 533 0
DWIDTH 10 0
BBX 8 6 1 2
BITMAP
ff
ff
00
00
ff
ff
ENDCHAR
STARTCHAR 62
ENCODING 62
SWIDTH 586 0
DWIDTH 11 0
BBX 9 9 1 0
BITMAP
e000
f800
3e00
0f00
0380
0f00
3e00
f800
e000
ENDCHAR
STARTCHAR 63
ENCODING 63
SWIDTH 533 0
DWIDTH 10 0
BBX 8 14 1 0
BITMAP
7e
ff
e7
e7
0e
1e
1c
38
38
38
00
38
38
38
ENDCHAR
STARTCHAR 64
ENCODING 64
SWIDTH 960 0
DWIDTH 18 0
BBX 16 17 1 -3
BITMAP
07f0
1ffc
3c1e
7006
63b7
e7f3
c663
cc63
ccc3
ccc6
ccc6
effc
e7b8
7000
3c00
1ff0
07f0
ENDCHAR
STARTCHAR 65
ENCODING 65
SWIDTH 693 0
DWIDTH 13 0
BBX 11 14 1 0
BITMAP
0e00
0e00
1f00
1f00
1b00
3b80
3180
3180
71c0
7fc0
7fc0
e0e0
e0e0
e0e0
ENDCHAR
STARTCHAR 66
ENCODING 66
SWIDTH 693 0
DWIDTH 13 0
BBX 11 14 1 0
BITMAP
fe00
ff80
e3c0
e1c0
e1c0
e380
ff80
ffc0
e1e0
e0e0
e0e0
e1e0
ffc0
ff00
ENDCHAR
STARTCHAR 67
ENCODING 67
SWIDTH 746 0
DWIDTH 14 0
BBX 12 14 1 0
BITMAP
0f80
3fe0
78e0
7070
f070
e000
e000
e000
e000
f070
7070
78e0
3fe0
0f80
ENDCHAR
STARTCHAR 68
ENCODING 68
SWIDTH 746 0
DWIDTH 14 0
BBX 12 14 1 0
BITMAP
ff00
ffc0
e1e0
e0e0
e070
e070
e070
e070
e070
e070
e0e0
e1e0
ffc0
ff00
ENDCHAR
STARTCHAR 69
ENCODING 69
SWIDTH 640 0
DWIDTH 12 0
BBX 10 14 1 0
BITMAP
ffc0
ffc0
e000
e000
e000
e000
ff80
ff80
e000
e000
e000
e000
ffc0
ffc0
ENDCHAR
STARTCHAR 70
ENCODING 70
SWIDTH 640 0
DWIDTH 12 0
BBX 10 14 1 0
BITMAP
ffc0
ffc0
e000
e000
e000
e000
ff80
ff80
e000
e000
e000
e000
e000
e000
ENDCHAR
STARTCHAR 71
ENCODING 71
SWIDTH 746 0
DWIDTH 14 0
BBX 12 14 1 0
BITMAP
0f80
3fe0
78e0
7070
e070
e000
e000
e3f0
e3f0
e070
7070
78f0
3ff0
1fb0
ENDCHAR
STARTCHAR 72
ENCODING 72
SWIDTH 693 0
DWIDTH 13 0
BBX 11 14 1 0
BITMAP
e0e0
e0e0
e0e0
e0e0
e0e0
e0e0
ffe0
ffe0
e0e0
e0e0
e0e0
e0e0
e0e0
e0e0
ENDCHAR
STARTCHAR 73
ENCODING 73
SWIDTH 266 0
DWIDTH 5 0
BBX 3 14 1 0
BITMAP
e0
e0
e0
e0
e0
e0
e0
e0
e0
e0
e0
e0
e0
e0
ENDCHAR
STARTCHAR 74
ENCODING 74
SWIDTH 533 0
DWIDTH 10 0
BBX 9 14 0 0
BITMAP
0380
0380
0380
0380
0380
0380
0380
0380
0380
e380
e380
f780
7f00
3e00
ENDCHAR
STARTCHAR 75
ENCODING 75
SWIDTH 746 0
DWIDTH 14 0
BBX 13 14 1 0
BITMAP
e0f0
e1e0
e3c0
e780
ef00
fe00
fc00
fe00
ef00
e780
e3c0
e1e0
e0f0
e078
ENDCHAR
STARTCHAR 76
ENCODING 76
SWIDTH 586 0
DWIDTH 11 0
BBX 9 14 1 0
BITMAP
e000
e000
e000
e000
e000
e000
e000
e000
e000
e000
e000
e000
ff80
ff80
ENDCHAR
STARTCHAR 77
ENCODING 77
SWIDTH 853 0
DWIDTH 16 0
BBX 14 14 1 0
BITMAP
e01c
e01c
f03c
f03c
f87c
f87c
f87c
ecdc
ecdc
ecdc
e79c
e79c
e31c
e31c
ENDCHAR
STARTCHAR 78
ENCODING 78
SWIDTH 746 0
DWIDTH 14 0
BBX 12 14 1 0
BITMAP
e070
f070
f070
f870
fc70
ec70
ee70
e670
e770
e370
e1f0
e1f0
e0f0
e070
ENDCHAR
STARTCHAR 79
ENCODING 79
SWIDTH 853 0
DWIDTH 16 0
BBX 14 14 1 0
BITMAP
0fc0
3ff0
7878
7038
f03c
e01c
e01c
e01c
e01c
f03c
7038
7878
3ff0
0fc0
ENDCHAR
STARTCHAR 80
ENCODING 80
SWIDTH 640 0
DWIDTH 12 0
BBX 10 14 1 0
BITMAP
fe00
ff80
e3c0
e1c0
e1c0
e3c0
ff80
fe00
e000
e000
e000
e000
e000
e000
ENDCHAR
STARTCHAR 81
ENCODING 81
SWIDTH 853 0
DWIDTH 16 0
BBX 14 15 1 -1
BITMAP
0fc0
3ff0
7878
7038
f03c
e01c
e01c
e01c
e01c
f19c
71d8
78f8
3ff0
0ff8
0018
ENDCHAR
STARTCHAR 82
ENCODING 82
SWIDTH 693 0
DWIDTH 13 0
BBX 11 14 1 0
BITMAP
ff00
ffc0
e1e0
e0e0
e0e0
e1e0
ffc0
ff80
e1c0
e0e0
e0e0
e0e0
e0e0
e0e0
ENDCHAR
STARTCHAR 83
ENCODING 83
SWIDTH 640 0
DWIDTH 12 0
BBX 10 14 1 0
BITMAP
3f00
7f80
e3c0
e1c0
f000
7c00
3f00
0f80
03c0
e1c0
e1c0
f3c0
7f80
3f00
ENDCHAR
STARTCHAR 84
ENCODING 84
SWIDTH 586 0
DWIDTH 11 0
BBX 11 14 0 0
BITMAP
ffe0
ffe0
0e00
0e00
0e00
0e00
0e00
0e00
0e00
0e00
0e00
0e00
0e00
0e00
ENDCHAR
STARTCHAR 85
ENCODING 85
SWIDTH 693 0
DWIDTH 13 0
BBX 11 14 1 0
BITMAP
e0e0
e0e0
e0e0
e0e0
e0e0
e0e0
e0e0
e0e0
e0e0
e0e0
e0e0
71c0
7fc0
1f00
ENDCHAR
STARTCHAR 86
ENCODING 86
SWIDTH 693 0
DWIDTH 13 0
BBX 11 14 1 0
BITMAP
e0e0
e0e0
e0e0
71c0
71c0
71c0
3180
3b80
3b80
1b00
1f00
1f00
0e00
0e00
ENDCHAR
STARTCHAR 87
ENCODING 87
SWIDTH 906 0
DWIDTH 17 0
BBX 15 14 1 0
BITMAP
e38e
e38e
e38e
e38e
739c
739c
739c
76dc
36d8
36d8
3ef8
1c70
1c70
1c70
ENDCHAR
STARTCHAR 88
ENCODING 88
SWIDTH 640 0
DWIDTH 12 0
BBX 12 14 0 0
BITMAP
e070
e070
70e0
79e0
1980
1f80
0f00
1f80
1980
39c0
70e0
70e0
e070
e070
ENDCHAR
STARTCHAR 89
ENCODING 89
SWIDTH 693 0
DWIDTH 13 0
BBX 11 14 1 0
BITMAP
e0e0
e0e0
e0e0
71c0
71c0
3b80
3b80
1f00
0e00
0e00
0e00
0e00
0e00
0e00
ENDCHAR
STARTCHAR 90
ENCODING 90
SWIDTH 586 0
DWIDTH 11 0
BBX 10 14 1 0
BITMAP
ffc0
ffc0
01c0
0380
0700
0700
0e00
1c00
3800
3800
7000
e000
ffc0
ffc0
ENDCHAR
STARTCHAR 91
ENCODING 91
SWIDTH 320 0
DWIDTH 6 0
BBX 5 18 1 -4
BITMAP
f8
f8
e0
e0
e0
e0
e0
e0
e0
e0
e0
e0
e0
e0
e0
e0
f8
f8
ENDCHAR
STARTCHAR 92
ENCODING 92
SWIDTH 266 0
DWIDTH 5 0
BBX 5 14 0 0
BITMAP
c0
c0
c0
40
60
60
60
20
30
30
10
18
18
18
ENDCHAR
STARTCHAR 93
ENCODING 93
SWIDTH 320 0
DWIDTH 6 0
BBX 5 18 0 -4
BITMAP
f8
f8
38
38
38
38
38
38
38
38
38
38
38
38
38
38
f8
f8
ENDCHAR
STARTCHAR 94
ENCODING 94
SWIDTH 533 0
DWIDTH 10 0
BBX 10 6 0 7
BITMAP
0c00
1e00
3f00
7380
e1c0
c0c0
ENDCHAR
STARTCHAR 95
ENCODING 95
SWIDTH 533 0
DWIDTH 10 0
BBX 10 2 0 -4
BITMAP
ffc0
ffc0
ENDCHAR
STARTCHAR 96
ENCODING 96
SWIDTH 266 0
DWIDTH 5 0
BBX 5 3 0 11
BITMAP
e0
70
38
ENDCHAR
STARTCHAR 97
ENCODING 97
SWIDTH 533 0
DWIDTH 10 0
BBX 8 10 1 0
BITMAP
7c
fe
e7
0f
3f
77
e7
e7
ff
77
ENDCHAR
STARTCHAR 98
ENCODING 98
SWIDTH 640 0
DWIDTH 12 0
BBX 10 14 1 0
BITMAP
e000
e000
e000
e000
ef00
ff80
f380
e1c0
e1c0
e1c0
e1c0
f380
ff80
ef00
ENDCHAR
STARTCHAR 99
ENCODING 99
SWIDTH 533 0
DWIDTH 10 0
BBX 9 10 1 0
BITMAP
1e00
7f80
7380
e000
e000
e000
e000
7380
7f80
1e00
ENDCHAR
STARTCHAR 100
ENCODING 100
SWIDTH 640 0
DWIDTH 12 0
BBX 10 14 1 0
BITMAP
01c0
01c0
01c0
01c0
3dc0
7fc0
73c0
e1c0
e1c0
e1c0
e1c0
73c0
7fc0
3dc0
ENDCHAR
STARTCHAR 101
ENCODING 101
SWIDTH 586 0
DWIDTH 11 0
BBX 9 10 1 0
BITMAP
1e00
7f00
7380
e180
ff80
ff80
e000
7380
7f80
1e00
ENDCHAR
STARTCHAR 102
ENCODING 102
SWIDTH 373 0
DWIDTH 7 0
BBX 7 14 0 0
BITMAP
1e
3e
38
38
fe
fe
38
38
38
38
38
38
38
38
ENDCHAR
STARTCHAR 103
ENCODING 103
SWIDTH 640 0
DWIDTH 12 0
BBX 10 14 1 -4
BITMAP
3dc0
7fc0
73c0
e1c0
e1c0
e1c0
e1c0
73c0
7fc0
3dc0
01c0
7380
7f80
1e00
ENDCHAR
STARTCHAR 104
ENCODING 104
SWIDTH 586 0
DWIDTH 11 0
BBX 9 14 1 0
BITMAP
e000
e000
e000
e000
ef00
ff80
f380
e380
e380
e380
e380
e380
e380
e380
ENDCHAR
STARTCHAR 105
ENCODING 105
SWIDTH 266 0
DWIDTH 5 0
BBX 3 14 1 0
BITMAP
e0
e0
00
00
e0
e0
e0
e0
e0
e0
e0
e0
e0
e0
ENDCHAR
STARTCHAR 106
ENCODING 106
SWIDTH 266 0
DWIDTH 5 0
BBX 5 18 -1 -4
BITMAP
38
38
00
00
38
38
38
38
38
38
38
38
38
38
38
38
f8
f0
ENDCHAR
STARTCHAR 107
ENCODING 107
SWIDTH 533 0
DWIDTH 10 0
BBX 9 14 1 0
BITMAP
e000
e000
e000
e000
e700
ee00
fc00
f800
f800
fc00
ee00
e700
e780
e380
ENDCHAR
STARTCHAR 108
ENCODING 108
SWIDTH 266 0
DWIDTH 5 0
BBX 3 14 1 0
BITMAP
e0
e0
e0
e0
e0
e0
e0
e0
e0
e0
e0
e0
e0
e0
ENDCHAR
STARTCHAR 109
ENCODING 109
SWIDTH 800 0
DWIDTH 15 0
BBX 13 10 1 0
BITMAP
ee70
fff8
f7b8
e738
e738
e738
e738
e738
e738
e738
ENDCHAR
STARTCHAR 110
ENCODING 110
SWIDTH 586 0
DWIDTH 11 0
BBX 9 10 1 0
BITMAP
ef00
ff80
f380
e380
e380
e380
e380
e380
e380
e380
ENDCHAR
STARTCHAR 111
ENCODING 111
SWIDTH 640 0
DWIDTH 12 0
BBX 10 10 1 0
BITMAP
1e00
7f80
7380
e1c0
e1c0
e1c0
e1c0
7380
7f80
1e00
ENDCHAR
STARTCHAR 112
ENCODING 112
SWIDTH 640 0
DWIDTH 12 0
BBX 10 14 1 -4
BITMAP
ef00
ff80
f380
e1c0
e1c0
e1c0
e1c0
f380
ff80
ef00
e000
e000
e000
e000
ENDCHAR
STARTCHAR 113
ENCODING 113
SWIDTH 640 0
DWIDTH 12 0
BBX 10 14 1 -4
BITMAP
3dc0
7fc0
73c0
e1c0
e1c0
e1c0
e1c0
73c0
7fc0
3dc0
01c0
01c0
01c0
01c0
ENDCHAR
STARTCHAR 114
ENCODING 114
SWIDTH 373 0
DWIDTH 7 0
BBX 6 10 1 0
BITMAP
ec
fc
fc
e0
e0
e0
e0
e0
e0
e0
ENDCHAR
STARTCHAR 115
ENCODING 115
SWIDTH 533 0
DWIDTH 10 0
BBX 8 10 1 0
BITMAP
1e
7f
e7
e0
fe
3f
07
e7
fe
78
ENDCHAR
STARTCHAR 116
ENCODING 116
SWIDTH 320 0
DWIDTH 6 0
BBX 6 13 0 0
BITMAP
70
70
70
fc
fc
70
70
70
70
70
70
7c
3c
ENDCHAR
STARTCHAR 117
ENCODING 117
SWIDTH 586 0
DWIDTH 11 0
BBX 9 10 1 0
BITMAP
e380
e380
e380
e380
e380
e380
e380
e780
ff80
7b80
ENDCHAR
STARTCHAR 118
ENCODING 118
SWIDTH 480 0
DWIDTH 9 0
BBX 9 10 0 0
BITMAP
e380
e380
e380
7700
7700
7700
3e00
3e00
1c00
1c00
ENDCHAR
STARTCHAR 119
ENCODING 119
SWIDTH 693 0
DWIDTH 13 0
BBX 13 10 0 0
BITMAP
e738
e738
e738
6730
7770
7570
3de0
3de0
18c0
18c0
ENDCHAR
STARTCHAR 120
ENCODING 120
SWIDTH 480 0
DWIDTH 9 0
BBX 9 10 0 0
BITMAP
e380
e380
7700
3e00
1c00
3e00
7700
7700
e380
e380
ENDCHAR
STARTCHAR 121
ENCODING 121
SWIDTH 480 0
DWIDTH 9 0
BBX 9 14 0 -4
BITMAP
e380
e380
e380
7700
7700
7700
3e00
3e00
1c00
1c00
1c00
1800
7800
7000
ENDCHAR
STARTCHAR 122
ENCODING 122
SWIDTH 533 0
DWIDTH 10 0
BBX 8 10 1 0
BITMAP
ff
ff
07
0e
1c
38
70
e0
ff
ff
ENDCHAR
STARTCHAR 123
ENCODING 123
SWIDTH 426 0
DWIDTH 8 0
BBX 7 18 1 -4
BITMAP
0e
1c
38
38
38
38
38
70
e0
70
38
38
38
38
38
38
1c
0e
ENDCHAR
STARTCHAR 124
ENCODING 124
SWIDTH 266 0
DWIDTH 5 0
BBX 2 18 1 -4
BITMAP
c0
c0
c0
c0
c0
c0
c0
c0
c0
c0
c0
c0
c0
c0
c0
c0
c0
c0
ENDCHAR
STARTCHAR 125
ENCODING 125
SWIDTH 426 0
DWIDTH 8 0
BBX 7 18 0 -4
BITMAP
e0
70
38
38
38
38
38
1c
0e
1c
38
38
38
38
38
38
70
e0
ENDCHAR
STARTCHAR 126
ENCODING 126
SWIDTH 586 0
DWIDTH 11 0
BBX 9 3 1 4
BITMAP
7980
ff80
cf00
ENDCHAR
STARTCHAR 160
ENCODING 160
SWIDTH 266 0
DWIDTH 5 0
BBX 1 1 0 0
BITMAP
00
ENDCHAR
STARTCHAR 161
ENCODING 161
SWIDTH 320 0
DWIDTH 6 0
BBX 3 14 2 -4
BITMAP
e0
e0
00
00
60
60
e0
e0
e0
e0
e0
e0
e0
e0
ENDCHAR
STARTCHAR 162
ENCODING 162
SWIDTH 533 0
DWIDTH 10 0
BBX 8 14 1 -2
BITMAP
02
02
3e
7f
e7
c8
c8
d0
d0
e3
7f
7e
40
40
ENDCHAR
STARTCHAR 163
ENCODING 163
SWIDTH 586 0
DWIDTH 11 0
BBX 10 13 0 0
BITMAP
1f00
3fc0
71c0
7000
7000
3800
7f00
1c00
1c00
3800
70c0
ffc0
ef80
ENDCHAR
STARTCHAR 164
ENCODING 164
SWIDTH 586 0
DWIDTH 11 0
BBX 9 8 1 2
BITMAP
c180
ff80
7700
6300
6300
7700
ff80
c180
ENDCHAR
STARTCHAR 165
ENCODING 165
SWIDTH 533 0
DWIDTH 10 0
BBX 9 13 0 0
BITMAP
e380
e380
e380
7700
7700
3e00
ff80
1c00
ff80
1c00
1c00
1c00
1c00
ENDCHAR
STARTCHAR 166
ENCODING 166
SWIDTH 266 0
DWIDTH 5 0
BBX 2 17 1 -3
BITMAP
c0
c0
c0
c0
c0
c0
c0
00
00
00
c0
c0
c0
c0
c0
c0
c0
ENDCHAR
STARTCHAR 167
ENCODING 167
SWIDTH 533 0
DWIDTH 10 0
BBX 8 18 1 -4
BITMAP
3c
7e
c7
c7
e0
78
fc
c6
c7
e3
73
3f
0e
07
e3
e3
7e
3c
ENDCHAR
STARTCHAR 168
ENCODING 168
SWIDTH 373 0
DWIDTH 7 0
BBX 5 2 1 11
BITMAP
d8
d8
ENDCHAR
STARTCHAR 169
ENCODING 169
SWIDTH 800 0
DWIDTH 15 0
BBX 13 13 1 0
BITMAP
0f80
38e0
6030
6730
cd98
d818
9808
d818
cd98
6730
6030
38e0
0f80
ENDCHAR
STARTCHAR 170
ENCODING 170
SWIDTH 426 0
DWIDTH 8 0
BBX 6 9 1 5
BITMAP
78
8c
7c
cc
cc
74
00
fc
fc
ENDCHAR
STARTCHAR 171
ENCODING 171
SWIDTH 586 0
DWIDTH 11 0
BBX 10 8 0 1
BITMAP
1dc0
3b80
7700
ee00
ee00
7700
3b80
1dc0
ENDCHAR
STARTCHAR 172
ENCODING 172
SWIDTH 586 0
DWIDTH 11 0
BBX 9 5 1 2
BITMAP
ff80
ff80
0180
0180
0180
ENDCHAR
STARTCHAR 173
ENCODING 173
SWIDTH 373 0
DWIDTH 7 0
BBX 5 3 1 4
BITMAP
f8
f8
f8
ENDCHAR
STARTCHAR 174
ENCODING 174
SWIDTH 800 0
DWIDTH 15 0
BBX 13 13 1 0
BITMAP
0f80
38e0
6030
6f90
ccd8
ccd8
8f08
cd98
cd98
6cf0
6030
38e0
0f80
ENDCHAR
STARTCHAR 175
ENCODING 175
SWIDTH 373 0
DWIDTH 7 0
BBX 5 2 1 12
BITMAP
f8
f8
ENDCHAR
STARTCHAR 176
ENCODING 176
SWIDTH 373 0
DWIDTH 7 0
BBX 6 6 0 7
BITMAP
78
fc
cc
cc
fc
78
ENDCHAR
STARTCHAR 177
ENCODING 177
SWIDTH 586 0
DWIDTH 11 0
BBX 9 9 1 0
BITMAP
1c00
1c00
ff80
ff80
1c00
1c00
0000
ff80
ff80
ENDCHAR
STARTCHAR 178
ENCODING 178
SWIDTH 320 0
DWIDTH 6 0
BBX 6 8 0 5
BITMAP
78
fc
cc
1c
78
e0
fc
fc
ENDCHAR
STARTCHAR 179
ENCODING 179
SWIDTH 320 0
DWIDTH 6 0
BBX 6 8 0 5
BITMAP
78
fc
cc
38
3c
cc
fc
78
ENDCHAR
STARTCHAR 180
ENCODING 180
SWIDTH 266 0
DWIDTH 5 0
BBX 5 3 0 11
BITMAP
38
70
e0
ENDCHAR
STARTCHAR 181
ENCODING 181
SWIDTH 586 0
DWIDTH 11 0
BBX 9 14 1 -4
BITMAP
e380
e380
e380
e380
e380
e380
e380
e780
ff80
fb80
e000
e000
e000
e000
ENDCHAR
STARTCHAR 182
ENCODING 182
SWIDTH 533 0
DWIDTH 10 0
BBX 9 18 0 -4
BITMAP
3f80
7b00
fb00
fb00
fb00
fb00
fb00
7b00
3b00
1b00
1b00
1b00
1b00
1b00
1b00
1b00
1b00
1b00
ENDCHAR
STARTCHAR 183
ENCODING 183
SWIDTH 213 0
DWIDTH 4 0
BBX 2 2 1 4
BITMAP
c0
c0
ENDCHAR
STARTCHAR 184
ENCODING 184
SWIDTH 373 0
DWIDTH 7 0
BBX 5 5 1 -5
BITMAP
60
70
18
f8
f0
ENDCHAR
STARTCHAR 185
ENCODING 185
SWIDTH 320 0
DWIDTH 6 0
BBX 4 8 0 5
BITMAP
30
f0
f0
30
30
30
30
30
ENDCHAR
STARTCHAR 186
ENCODING 186
SWIDTH 426 0
DWIDTH 8 0
BBX 6 9 1 5
BITMAP
78
cc
cc
cc
cc
78
00
fc
fc
ENDCHAR
STARTCHAR 187
ENCODING 187
SWIDTH 586 0
DWIDTH 11 0
BBX 10 8 0 1
BITMAP
ee00
7700
3b80
1dc0
1dc0
3b80
7700
ee00
ENDCHAR
STARTCHAR 188
ENCODING 188
SWIDTH 800 0
DWIDTH 15 0
BBX 14 13 0 0
BITMAP
3060
f060
f0c0
30c0
3180
3198
3338
3638
0678
0cd8
0cfc
1818
1818
ENDCHAR
STARTCHAR 189
ENCODING 189
SWIDTH 800 0
DWIDTH 15 0
BBX 15 13 0 0
BITMAP
3060
f060
f0c0
30c0
3180
31bc
337e
3666
060e
0c3c
0c70
187e
187e
ENDCHAR
STARTCHAR 190
ENCODING 190
SWIDTH 800 0
DWIDTH 15 0
BBX 14 13 0 0
BITMAP
7830
fc30
cc60
3860
3cc0
ccd8
fdb8
7b38
0378
06d8
06fc
0c18
0c18
ENDCHAR
STARTCHAR 191
ENCODING 191
SWIDTH 533 0
DWIDTH 10 0
BBX 8 14 1 -4
BITMAP
1c
1c
00
00
1c
1c
1c
38
78
70
e7
e7
ff
7e
ENDCHAR
STARTCHAR 192
ENCODING 192
SWIDTH 693 0
DWIDTH 13 0
BBX 11 18 1 0
BITMAP
3800
1c00
0e00
0000
0e00
0e00
1f00
1f00
1b00
3b80
3180
3180
71c0
7fc0
7fc0
e0e0
e0e0
e0e0
ENDCHAR
STARTCHAR 193
ENCODING 193
SWIDTH 693 0
DWIDTH 13 0
BBX 11 18 1 0
BITMAP
0380
0700
0e00
0000
0e00
0e00
1f00
1f00
1b00
3b80
3180
3180
71c0
7fc0
7fc0
e0e0
e0e0
e0e0
ENDCHAR
STARTCHAR 194
ENCODING 194
SWIDTH 693 0
DWIDTH 13 0
BBX 11 18 1 0
BITMAP
0e00
1f00
3b80
0000
0e00
0e00
1f00
1f00
1b00
3b80
3180
3180
71c0
7fc0
7fc0
e0e0
e0e0
e0e0
ENDCHAR
STARTCHAR 195
ENCODING 195
SWIDTH 693 0
DWIDTH 13 0
BBX 11 18 1 0
BITMAP
1d80
3f80
3700
0000
0e00
0e00
1f00
1f00
1b00
3b80
3180
3180
71c0
7fc0
7fc0
e0e0
e0e0
e0e0
ENDCHAR
STARTCHAR 196
ENCODING 196
SWIDTH 693 0
DWIDTH 13 0
BBX 11 17 1 0
BITMAP
1980
1980
0000
0e00
0e00
1f00
1f00
1b00
3b80
3180
3180
71c0
7fc0
7fc0
e0e0
e0e0
e0e0
ENDCHAR
STARTCHAR 197
ENCODING 197
SWIDTH 693 0
DWIDTH 13 0
BBX 11 17 1 0
BITMAP
0e00
1b00
1b00
0e00
0e00
1f00
1f00
1b00
3b80
3180
3180
71c0
7fc0
7fc0
e0e0
e0e0
e0e0
ENDCHAR
STARTCHAR 198
ENCODING 198
SWIDTH 960 0
DWIDTH 18 0
BBX 16 14 1 0
BITMAP
0fff
0fff
1f80
1b80
3b80
3b80
33fe
73fe
7380
7f80
ff80
e380
e3ff
e3ff
ENDCHAR
STARTCHAR 199
ENCODING 199
SWIDTH 746 0
DWIDTH 14 0
BBX 12 19 1 -5
BITMAP
0f80
3fe0
78e0
7070
f070
e000
e000
e000
e000
f070
7070
78e0
3fe0
0f80
0c00
0e00
0300
1f00
1e00
ENDCHAR
STARTCHAR 200
ENCODING 200
SWIDTH 640 0
DWIDTH 12 0
BBX 10 18 1 0
BITMAP
3800
1c00
0e00
0000
ffc0
ffc0
e000
e000
e000
e000
ff80
ff80
e000
e000
e000
e000
ffc0
ffc0
ENDCHAR
STARTCHAR 201
ENCODING 201
SWIDTH 640 0
DWIDTH 12 0
BBX 10 18 1 0
BITMAP
0380
0700
0e00
0000
ffc0
ffc0
e000
e000
e000
e000
ff80
ff80
e000
e000
e000
e000
ffc0
ffc0
ENDCHAR
STARTCHAR 202
ENCODING 202
SWIDTH 640 0
DWIDTH 12 0
BBX 10 18 1 0
BITMAP
0e00
1f00
3b80
0000
ffc0
ffc0
e000
e000
e000
e000
ff80
ff80
e000
e000
e000
e000
ffc0
ffc0
ENDCHAR
STARTCHAR 203
ENCODING 203
SWIDTH 640 0
DWIDTH 12 0
BBX 10 17 1 0
BITMAP
3300
3300
0000
ffc0
ffc0
e000
e000
e000
e000
ff80
ff80
e000
e000
e000
e000
ffc0
ffc0
ENDCHAR
STARTCHAR 204
ENCODING 204
SWIDTH 266 0
DWIDTH 5 0
BBX 5 18 -1 0
BITMAP
e0
70
38
00
38
38
38
38
38
38
38
38
38
38
38
38
38
38
ENDCHAR
STARTCHAR 205
ENCODING 205
SWIDTH 266 0
DWIDTH 5 0
BBX 5 18 1 0
BITMAP
38
70
e0
00
e0
e0
e0
e0
e0
e0
e0
e0
e0
e0
e0
e0
e0
e0
ENDCHAR
STARTCHAR 206
ENCODING 206
SWIDTH 266 0
DWIDTH 5 0
BBX 5 18 0 0
BITMAP
20
70
d8
00
70
70
70
70
70
70
70
70
70
70
70
70
70
70
ENDCHAR
STARTCHAR 207
ENCODING 207
SWIDTH 266 0
DWIDTH 5 0
BBX 5 17 0 0
BITMAP
d8
d8
00
70
70
70
70
70
70
70
70
70
70
70
70
70
70
ENDCHAR
STARTCHAR 208
ENCODING 208
SWIDTH 746 0
DWIDTH 14 0
BBX 13 14 0 0
BITMAP
7f80
7fe0
70f0
7070
7038
7038
fe38
fe38
7038
7038
7070
70f0
7fe0
7f80
ENDCHAR
STARTCHAR 209
ENCODING 209
SWIDTH 746 0
DWIDTH 14 0
BBX 12 18 1 0
BITMAP
0ec0
1fc0
1b80
0000
e070
f070
f070
f870
fc70
ec70
ee70
e670
e770
e370
e1f0
e1f0
e0f0
e070
ENDCHAR
STARTCHAR 210
ENCODING 210
SWIDTH 853 0
DWIDTH 16 0
BBX 14 18 1 0
BITMAP
0e00
0700
0380
0000
0fc0
3ff0
7878
7038
f03c
e01c
e01c
e01c
e01c
f03c
7038
7878
3ff0
0fc0
ENDCHAR
STARTCHAR 211
ENCODING 211
SWIDTH 853 0
DWIDTH 16 0
BBX 14 18 1 0
BITMAP
00e0
01c0
0380
0000
0fc0
3ff0
7878
7038
f03c
e01c
e01c
e01c
e01c
f03c
7038
7878
3ff0
0fc0
ENDCHAR
STARTCHAR 212
ENCODING 212
SWIDTH 853 0
DWIDTH 16 0
BBX 14 18 1 0
BITMAP
0380
07c0
0ee0
0000
0fc0
3ff0
7878
7038
f03c
e01c
e01c
e01c
e01c
f03c
7038
7878
3ff0
0fc0
ENDCHAR
STARTCHAR 213
ENCODING 213
SWIDTH 853 0
DWIDTH 16 0
BBX 14 18 1 0
BITMAP
0760
0fe0
0dc0
0000
0fc0
3ff0
7878
7038
f03c
e01c
e01c
e01c
e01c
f03c
7038
7878
3ff0
0fc0
ENDCHAR
STARTCHAR 214
ENCODING 214
SWIDTH 853 0
DWIDTH 16 0
BBX 14 17 1 0
BITMAP
0cc0
0cc0
0000
0fc0
3ff0
7878
7038
f03c
e01c
e01c
e01c
e01c
f03c
7038
7878
3ff0
0fc0
ENDCHAR
STARTCHAR 215
ENCODING 215
SWIDTH 586 0
DWIDTH 11 0
BBX 10 8 0 1
BITMAP
e1c0
7380
3f00
1e00
1e00
3f00
7380
e1c0
ENDCHAR
STARTCHAR 216
ENCODING 216
SWIDTH 853 0
DWIDTH 16 0
BBX 15 14 0 0
BITMAP
07ee
1ffc
3c38
387c
78ee
71ce
738e
770e
7e0e
7c1e
381c
7c3c
eff8
c7e0
ENDCHAR
STARTCHAR 217
ENCODING 217
SWIDTH 693 0
DWIDTH 13 0
BBX 11 18 1 0
BITMAP
3800
1c00
0e00
0000
e0e0
e0e0
e0e0
e0e0
e0e0
e0e0
e0e0
e0e0
e0e0
e0e0
e0e0
71c0
7fc0
1f00
ENDCHAR
STARTCHAR 218
ENCODING 218
SWIDTH 693 0
DWIDTH 13 0
BBX 11 18 1 0
BITMAP
0380
0700
0e00
0000
e0e0
e0e0
e0e0
e0e0
e0e0
e0e0
e0e0
e0e0
e0e0
e0e0
e0e0
71c0
7fc0
1f00
ENDCHAR
STARTCHAR 219
ENCODING 219
SWIDTH 693 0
DWIDTH 13 0
BBX 11 18 1 0
BITMAP
0e00
1f00
3b80
0000
e0e0
e0e0
e0e0
e0e0
e0e0
e0e0
e0e0
e0e0
e0e0
e0e0
e0e0
71c0
7fc0
1f00
ENDCHAR
STARTCHAR 220
ENCODING 220
SWIDTH 693 0
DWIDTH 13 0
BBX 11 17 1 0
BITMAP
1980
1980
0000
e0e0
e0e0
e0e0
e0e0
e0e0
e0e0
e0e0
e0e0
e0e0
e0e0
e0e0
71c0
7fc0
1f00
ENDCHAR
STARTCHAR 221
ENCODING 221
SWIDTH 693 0
DWIDTH 13 0
BBX 11 18 1 0
BITMAP
0380
0700
0e00
0000
e0e0
e0e0
e0e0
71c0
71c0
3b80
3b80
1f00
0e00
0e00
0e00
0e00
0e00
0e00
ENDCHAR
STARTCHAR 222
ENCODING 222
SWIDTH 640 0
DWIDTH 12 0
BBX 10 14 1 0
BITMAP
e000
e000
e000
fe00
ff80
e3c0
e1c0
e1c0
e3c0
ff80
fe00
e000
e000
e000
ENDCHAR
STARTCHAR 223
ENCODING 223
SWIDTH 533 0
DWIDTH 10 0
BBX 8 14 1 0
BITMAP
3c
7e
e7
e7
e7
e7
ee
ee
e7
e7
e7
e7
ef
ee
ENDCHAR
STARTCHAR 224
ENCODING 224
SWIDTH 533 0
DWIDTH 10 0
BBX 8 14 1 0
BITMAP
70
38
1c
00
7c
fe
e7
0f
3f
77
e7
e7
ff
77
ENDCHAR
STARTCHAR 225
ENCODING 225
SWIDTH 533 0
DWIDTH 10 0
BBX 8 14 1 0
BITMAP
0e
1c
38
00
7c
fe
e7
0f
3f
77
e7
e7
ff
77
ENDCHAR
STARTCHAR 226
ENCODING 226
SWIDTH 533 0
DWIDTH 10 0
BBX 8 14 1 0
BITMAP
1c
3e
77
00
7c
fe
e7
0f
3f
77
e7
e7
ff
77
ENDCHAR
STARTCHAR 227
ENCODING 227
SWIDTH 533 0
DWIDTH 10 0
BBX 8 14 1 0
BITMAP
3b
7f
6e
00
7c
fe
e7
0f
3f
77
e7
e7
ff
77
ENDCHAR
STARTCHAR 228
ENCODING 228
SWIDTH 533 0
DWIDTH 10 0
BBX 8 13 1 0
BITMAP
36
36
00
7c
fe
e7
0f
3f
77
e7
e7
ff
77
ENDCHAR
STARTCHAR 229
ENCODING 229
SWIDTH 533 0
DWIDTH 10 0
BBX 8 14 1 0
BITMAP
1c
36
36
1c
7c
fe
e7
0f
3f
77
e7
e7
ff
77
ENDCHAR
STARTCHAR 230
ENCODING 230
SWIDTH 853 0
DWIDTH 16 0
BBX 14 10 1 0
BITMAP
7cf0
fff8
e71c
0f1c
3ffc
7700
e700
ef9c
fffc
79f0
ENDCHAR
STARTCHAR 231
ENCODING 231
SWIDTH 533 0
DWIDTH 10 0
BBX 9 15 1 -5
BITMAP
1e00
7f80
7380
e000
e000
e000
e000
7380
7f80
1e00
1800
1c00
0600
3e00
3c00
ENDCHAR
STARTCHAR 232
ENCODING 232
SWIDTH 586 0
DWIDTH 11 0
BBX 9 14 1 0
BITMAP
3800
1c00
0e00
0000
1e00
7f00
7380
e180
ff80
ff80
e000
7380
7f80
1e00
ENDCHAR
STARTCHAR 233
ENCODING 233
SWIDTH 586 0
DWIDTH 11 0
BBX 9 14 1 0
BITMAP
0700
0e00
1c00
0000
1e00
7f00
7380
e180
ff80
ff80
e000
7380
7f80
1e00
ENDCHAR
STARTCHAR 234
ENCODING 234
SWIDTH 586 0
DWIDTH 11 0
BBX 9 14 1 0
BITMAP
0e00
1f00
3b80
0000
1e00
7f00
7380
e180
ff80
ff80
e000
7380
7f80
1e00
ENDCHAR
STARTCHAR 235
ENCODING 235
SWIDTH 586 0
DWIDTH 11 0
BBX 9 13 1 0
BITMAP
3300
3300
0000
1e00
7f00
7380
e180
ff80
ff80
e000
7380
7f80
1e00
ENDCHAR
STARTCHAR 236
ENCODING 236
SWIDTH 266 0
DWIDTH 5 0
BBX 5 14 0 0
BITMAP
e0
70
38
00
70
70
70
70
70
70
70
70
70
70
ENDCHAR
STARTCHAR 237
ENCODING 237
SWIDTH 266 0
DWIDTH 5 0
BBX 5 14 0 0
BITMAP
38
70
e0
00
70
70
70
70
70
70
70
70
70
70
ENDCHAR
STARTCHAR 238
ENCODING 238
SWIDTH 266 0
DWIDTH 5 0
BBX 7 14 -1 0
BITMAP
38
7c
ee
00
38
38
38
38
38
38
38
38
38
38
ENDCHAR
STARTCHAR 239
ENCODING 239
SWIDTH 266 0
DWIDTH 5 0
BBX 5 13 0 0
BITMAP
d8
d8
00
70
70
70
70
70
70
70
70
70
70
ENDCHAR
STARTCHAR 240
ENCODING 240
SWIDTH 640 0
DWIDTH 12 0
BBX 10 14 1 0
BITMAP
7000
1f00
7c00
0600
1f00
7f80
7380
e1c0
e1c0
e1c0
e1c0
7380
7f80
1e00
ENDCHAR
STARTCHAR 241
ENCODING 241
SWIDTH 586 0
DWIDTH 11 0
BBX 9 14 1 0
BITMAP
3b00
7f00
6e00
0000
ef00
ff80
f380
e380
e380
e380
e380
e380
e380
e380
ENDCHAR
STARTCHAR 242
ENCODING 242
SWIDTH 640 0
DWIDTH 12 0
BBX 10 14 1 0
BITMAP
3800
1c00
0e00
0000
1e00
7f80
7380
e1c0
e1c0
e1c0
e1c0
7380
7f80
1e00
ENDCHAR
STARTCHAR 243
ENCODING 243
SWIDTH 640 0
DWIDTH 12 0
BBX 10 14 1 0
BITMAP
0700
0e00
1c00
0000
1e00
7f80
7380
e1c0
e1c0
e1c0
e1c0
7380
7f80
1e00
ENDCHAR
STARTCHAR 244
ENCODING 244
SWIDTH 640 0
DWIDTH 12 0
BBX 10 14 1 0
BITMAP
0e00
1f00
3b80
0000
1e00
7f80
7380
e1c0
e1c0
e1c0
e1c0
7380
7f80
1e00
ENDCHAR
STARTCHAR 245
ENCODING 245
SWIDTH 640 0
DWIDTH 12 0
BBX 10 14 1 0
BITMAP
1d80
3f80
3700
0000
1e00
7f80
7380
e1c0
e1c0
e1c0
e1c0
7380
7f80
1e00
ENDCHAR
STARTCHAR 246
ENCODING 246
SWIDTH 640 0
DWIDTH 12 0
BBX 10 13 1 0
BITMAP
3300
3300
0000
1e00
7f80
7380
e1c0
e1c0
e1c0
e1c0
7380
7f80
1e00
ENDCHAR
STARTCHAR 247
ENCODING 247
SWIDTH 586 0
DWIDTH 11 0
BBX 9 8 1 1
BITMAP
1c00
1c00
0000
ff80
ff80
0000
1c00
1c00
ENDCHAR
STARTCHAR 248
ENCODING 248
SWIDTH 640 0
DWIDTH 12 0
BBX 12 10 0 0
BITMAP
0f30
3fe0
38c0
71e0
77e0
7ee0
78e0
31c0
7fc0
cf00
ENDCHAR
STARTCHAR 249
ENCODING 249
SWIDTH 586 0
DWIDTH 11 0
BBX 9 14 1 0
BITMAP
7000
3800
1c00
0000
e380
e380
e380
e380
e380
e380
e380
e780
ff80
7b80
ENDCHAR
STARTCHAR 250
ENCODING 250
SWIDTH 586 0
DWIDTH 11 0
BBX 9 14 1 0
BITMAP
0700
0e00
1c00
0000
e380
e380
e380
e380
e380
e380
e380
e780
ff80
7b80
ENDCHAR
STARTCHAR 251
ENCODING 251
SWIDTH 586 0
DWIDTH 11 0
BBX 9 14 1 0
BITMAP
1c00
3e00
7700
0000
e380
e380
e380
e380
e380
e380
e380
e780
ff80
7b80
ENDCHAR
STARTCHAR 252
ENCODING 252
SWIDTH 586 0
DWIDTH 11 0
BBX 9 13 1 0
BITMAP
3600
3600
0000
e380
e380
e380
e380
e380
e380
e380
e780
ff80
7b80
ENDCHAR
STARTCHAR 253
ENCODING 253
SWIDTH 480 0
DWIDTH 9 0
BBX 9 18 0 -4
BITMAP
0700
0e00
1c00
0000
e380
e380
e380
7700
7700
7700
3e00
3e00
1c00
1c00
1c00
1800
7800
7000
ENDCHAR
STARTCHAR 254
ENCODING 254
SWIDTH 640 0
DWIDTH 12 0
BBX 10 18 1 -4
BITMAP
e000
e000
e000
e000
ef00
ff80
f380
e1c0
e1c0
e1c0
e1c0
f380
ff80
ef00
e000
e000
e000
e000
ENDCHAR
STARTCHAR 255
ENCODING 255
SWIDTH 480 0
DWIDTH 9 0
BBX 9 17 0 -4
BITMAP
3600
3600
0000
e380
e380
e380
7700
7700
7700
3e00
3e00
1c00
1c00
1c00
1800
7800
7000
ENDCHAR
ENDFONT
